<mxfile host="app.diagrams.net" modified="2023-07-20T13:53:24.864Z" agent="Mozilla/5.0 (Windows NT 10.0; Win64; x64; rv:109.0) Gecko/20100101 Firefox/115.0" version="21.6.1" etag="GQU33iz67pJ5rzj08b6o" type="github">
  <diagram name="Page-1" id="Q4WIOze9odMph-b-LJnT">
    <mxGraphModel>
      <root>
        <mxCell id="0" />
        <mxCell id="1" parent="0" />
      </root>
    </mxGraphModel>
  </diagram>
</mxfile>
